ffmpeg version 3.4.8-0ubuntu0.2 Copyright (c) 2000-2020 the FFmpeg developers
  built with gcc 7 (Ubuntu 7.5.0-3ubuntu1~18.04)
  configuration: --prefix=/usr --extra-version=0ubuntu0.2 --toolchain=hardened --libdir=/usr/lib/x86_64-linux-gnu --incdir=/usr/include/x86_64-linux-gnu --enable-gpl --disable-stripping --enable-avresample --enable-avisynth --enable-gnutls --enable-ladspa --enable-libass --enable-libbluray --enable-libbs2b --enable-libcaca --enable-libcdio --enable-libflite --enable-libfontconfig --enable-libfreetype --enable-libfribidi --enable-libgme --enable-libgsm --enable-libmp3lame --enable-libmysofa --enable-libopenjpeg --enable-libopenmpt --enable-libopus --enable-libpulse --enable-librubberband --enable-librsvg --enable-libshine --enable-libsnappy --enable-libsoxr --enable-libspeex --enable-libssh --enable-libtheora --enable-libtwolame --enable-libvorbis --enable-libvpx --enable-libwavpack --enable-libwebp --enable-libx265 --enable-libxml2 --enable-libxvid --enable-libzmq --enable-libzvbi --enable-omx --enable-openal --enable-opengl --enable-sdl2 --enable-libdc1394 --enable-libdrm --enable-libiec61883 --enable-chromaprint --enable-frei0r --enable-libopencv --enable-libx264 --enable-shared
  libavutil      55. 78.100 / 55. 78.100
  libavcodec     57.107.100 / 57.107.100
  libavformat    57. 83.100 / 57. 83.100
  libavdevice    57. 10.100 / 57. 10.100
  libavfilter     6.107.100 /  6.107.100
  libavresample   3.  7.  0 /  3.  7.  0
  libswscale      4.  8.100 /  4.  8.100
  libswresample   2.  9.100 /  2.  9.100
  libpostproc    54.  7.100 / 54.  7.100
[rawvideo @ 0x5605ec47da20] Estimating duration from bitrate, this may be inaccurate
Input #0, rawvideo, from '../../SVC-Encoder-20220109T061506Z-001/SVC-Encoder/Dataset/RollerCoaster/ERP_8x8/tile_yuv/Tile_35_480x240.yuv':
  Duration: 00:00:10.00, start: 0.000000, bitrate: 41472 kb/s
    Stream #0:0: Video: rawvideo (I420 / 0x30323449), yuv420p, 480x240, 41472 kb/s, 30 tbr, 30 tbn, 30 tbc
Stream mapping:
  Stream #0:0 -> #0:0 (rawvideo (native) -> h264 (libx264))
Press [q] to stop, [?] for help
[libx264 @ 0x5605ec48ac60] using cpu capabilities: MMX2 SSE2Fast LZCNT SSSE3 SSE4.2 AVX
[libx264 @ 0x5605ec48ac60] profile High, level 2.1
Output #0, rawvideo, to 'RollerCoaster_Tile_35_480x240_x264_QP_24.h264':
  Metadata:
    encoder         : Lavf57.83.100
    Stream #0:0: Video: h264 (libx264), yuv420p, 480x240, q=-1--1, 30 fps, 30 tbn, 30 tbc
    Metadata:
      encoder         : Lavc57.107.100 libx264
    Side data:
      cpb: bitrate max/min/avg: 0/0/0 buffer size: 0 vbv_delay: -1
frame=  205 fps=0.0 q=30.0 PSNR=Y:nan U:nan V:nan *:nan size=     137kB time=00:00:05.40 bitrate= 208.2kbits/s speed=10.8x    frame=  300 fps=0.0 q=30.0 LPSNR=Y:inf U:inf V:inf *:inf size=     240kB time=00:00:09.93 bitrate= 197.8kbits/s speed=12.3x    
video:240kB audio:0kB subtitle:0kB other streams:0kB global headers:0kB muxing overhead: 0.000000%
[libx264 @ 0x5605ec48ac60] frame I:2     Avg QP:22.53  size:  9528  PSNR Mean Y:47.84 U:50.54 V:52.25 Avg:48.72 Global:48.72
[libx264 @ 0x5605ec48ac60] frame P:76    Avg QP:23.66  size:  2181  PSNR Mean Y:44.77 U:49.78 V:51.27 Avg:45.98 Global:45.92
[libx264 @ 0x5605ec48ac60] frame B:222   Avg QP:29.44  size:   274  PSNR Mean Y:43.78 U:49.38 V:51.04 Avg:45.06 Global:45.02
[libx264 @ 0x5605ec48ac60] consecutive B-frames:  1.3%  0.0%  0.0% 98.7%
[libx264 @ 0x5605ec48ac60] mb I  I16..4: 58.6% 21.8% 19.7%
[libx264 @ 0x5605ec48ac60] mb P  I16..4:  3.2%  0.5%  0.1%  P16..4: 22.2% 13.4%  7.6%  0.0%  0.0%    skip:53.0%
[libx264 @ 0x5605ec48ac60] mb B  I16..4:  0.0%  0.0%  0.0%  B16..8: 25.1%  3.6%  0.2%  direct: 0.1%  skip:70.9%  L0:45.5% L1:45.1% BI: 9.4%
[libx264 @ 0x5605ec48ac60] 8x8 transform intra:17.3% inter:64.9%
[libx264 @ 0x5605ec48ac60] coded y,uvDC,uvAC intra: 17.5% 37.0% 14.5% inter: 6.7% 5.0% 0.1%
[libx264 @ 0x5605ec48ac60] i16 v,h,dc,p: 31% 44% 16%  9%
[libx264 @ 0x5605ec48ac60] i8 v,h,dc,ddl,ddr,vr,hd,vl,hu: 14% 27% 34%  1%  3%  3%  9%  7%  2%
[libx264 @ 0x5605ec48ac60] i4 v,h,dc,ddl,ddr,vr,hd,vl,hu: 21% 25% 15%  4%  2%  3%  9% 18%  3%
[libx264 @ 0x5605ec48ac60] i8c dc,h,v,p: 55% 26% 15%  4%
[libx264 @ 0x5605ec48ac60] Weighted P-Frames: Y:0.0% UV:0.0%
[libx264 @ 0x5605ec48ac60] ref P L0: 62.1% 20.6% 14.6%  2.7%
[libx264 @ 0x5605ec48ac60] ref B L0: 88.4% 10.7%  1.0%
[libx264 @ 0x5605ec48ac60] ref B L1: 92.6%  7.4%
[libx264 @ 0x5605ec48ac60] PSNR Mean Y:44.057 U:49.491 V:51.106 Avg:45.318 Global:45.251 kb/s:196.51
